<mxfile host="app.diagrams.net" modified="2023-04-24T03:31:35.108Z" agent="Mozilla/5.0 (Windows NT 10.0; Win64; x64) AppleWebKit/537.36 (KHTML, like Gecko) Chrome/112.0.0.0 Safari/537.36 Edg/112.0.1722.46" etag="jHQz1hMEI6Ssneu8a7uV" version="21.2.1" type="github">
  <diagram name="第 1 页" id="3RN2W1VMpQRvNgXGHG9F">
    <mxGraphModel dx="1034" dy="477" grid="1" gridSize="10" guides="1" tooltips="1" connect="1" arrows="1" fold="1" page="1" pageScale="1" pageWidth="827" pageHeight="1169" math="0" shadow="0">
      <root>
        <mxCell id="0" />
        <mxCell id="1" parent="0" />
        <mxCell id="Sxg0smb5iZii_V2dpZin-4" value="毕业生信息表" style="html=1;dashed=0;whiteSpace=wrap;shape=partialRectangle;right=0;left=0;" vertex="1" parent="1">
          <mxGeometry x="640" y="315" width="100" height="30" as="geometry" />
        </mxCell>
        <mxCell id="Sxg0smb5iZii_V2dpZin-5" value="账号权限表" style="html=1;dashed=0;whiteSpace=wrap;shape=partialRectangle;right=0;left=0;" vertex="1" parent="1">
          <mxGeometry x="290" y="420" width="100" height="30" as="geometry" />
        </mxCell>
        <mxCell id="Sxg0smb5iZii_V2dpZin-6" style="rounded=0;orthogonalLoop=1;jettySize=auto;html=1;entryX=0;entryY=0;entryDx=0;entryDy=0;" edge="1" parent="1" target="Sxg0smb5iZii_V2dpZin-12">
          <mxGeometry relative="1" as="geometry">
            <mxPoint x="190" y="309" as="sourcePoint" />
            <mxPoint x="300.00359312880704" y="291.715728752538" as="targetPoint" />
          </mxGeometry>
        </mxCell>
        <mxCell id="Sxg0smb5iZii_V2dpZin-7" value="账号信息" style="edgeLabel;html=1;align=center;verticalAlign=middle;resizable=0;points=[];" vertex="1" connectable="0" parent="Sxg0smb5iZii_V2dpZin-6">
          <mxGeometry x="0.3434" y="2" relative="1" as="geometry">
            <mxPoint x="-29" y="-3" as="offset" />
          </mxGeometry>
        </mxCell>
        <mxCell id="Sxg0smb5iZii_V2dpZin-8" style="rounded=0;orthogonalLoop=1;jettySize=auto;html=1;entryX=0.027;entryY=0.694;entryDx=0;entryDy=0;entryPerimeter=0;" edge="1" parent="1" target="Sxg0smb5iZii_V2dpZin-12">
          <mxGeometry relative="1" as="geometry">
            <mxPoint x="170" y="342" as="sourcePoint" />
            <mxPoint x="280" y="351.67999999999995" as="targetPoint" />
          </mxGeometry>
        </mxCell>
        <mxCell id="Sxg0smb5iZii_V2dpZin-9" value="权限信息" style="edgeLabel;html=1;align=center;verticalAlign=middle;resizable=0;points=[];" vertex="1" connectable="0" parent="Sxg0smb5iZii_V2dpZin-8">
          <mxGeometry x="0.3434" y="2" relative="1" as="geometry">
            <mxPoint x="-12" y="4" as="offset" />
          </mxGeometry>
        </mxCell>
        <mxCell id="Sxg0smb5iZii_V2dpZin-10" style="rounded=0;orthogonalLoop=1;jettySize=auto;html=1;entryX=0.5;entryY=0;entryDx=0;entryDy=0;" edge="1" parent="1" target="Sxg0smb5iZii_V2dpZin-14">
          <mxGeometry relative="1" as="geometry">
            <mxPoint x="520" y="240" as="sourcePoint" />
            <mxPoint x="572.6800000000001" y="262.32000000000005" as="targetPoint" />
          </mxGeometry>
        </mxCell>
        <mxCell id="Sxg0smb5iZii_V2dpZin-11" value="就业登记信息" style="edgeLabel;html=1;align=center;verticalAlign=middle;resizable=0;points=[];" vertex="1" connectable="0" parent="Sxg0smb5iZii_V2dpZin-10">
          <mxGeometry x="0.3434" y="2" relative="1" as="geometry">
            <mxPoint x="-2" y="-10" as="offset" />
          </mxGeometry>
        </mxCell>
        <mxCell id="Sxg0smb5iZii_V2dpZin-17" style="edgeStyle=orthogonalEdgeStyle;rounded=0;orthogonalLoop=1;jettySize=auto;html=1;exitX=1;exitY=0.5;exitDx=0;exitDy=0;" edge="1" parent="1" source="Sxg0smb5iZii_V2dpZin-12" target="Sxg0smb5iZii_V2dpZin-14">
          <mxGeometry relative="1" as="geometry" />
        </mxCell>
        <mxCell id="Sxg0smb5iZii_V2dpZin-19" style="edgeStyle=orthogonalEdgeStyle;rounded=0;orthogonalLoop=1;jettySize=auto;html=1;exitX=0.5;exitY=1;exitDx=0;exitDy=0;" edge="1" parent="1" source="Sxg0smb5iZii_V2dpZin-12" target="Sxg0smb5iZii_V2dpZin-5">
          <mxGeometry relative="1" as="geometry" />
        </mxCell>
        <mxCell id="Sxg0smb5iZii_V2dpZin-12" value="1.1 注登录册" style="shape=ellipse;html=1;dashed=0;whiteSpace=wrap;perimeter=ellipsePerimeter;" vertex="1" parent="1">
          <mxGeometry x="290" y="300" width="100" height="60" as="geometry" />
        </mxCell>
        <mxCell id="Sxg0smb5iZii_V2dpZin-20" style="edgeStyle=orthogonalEdgeStyle;rounded=0;orthogonalLoop=1;jettySize=auto;html=1;exitX=1;exitY=0.5;exitDx=0;exitDy=0;entryX=0;entryY=0.5;entryDx=0;entryDy=0;" edge="1" parent="1" source="Sxg0smb5iZii_V2dpZin-14" target="Sxg0smb5iZii_V2dpZin-4">
          <mxGeometry relative="1" as="geometry" />
        </mxCell>
        <mxCell id="Sxg0smb5iZii_V2dpZin-14" value="1.1 个人信息管理" style="shape=ellipse;html=1;dashed=0;whiteSpace=wrap;perimeter=ellipsePerimeter;" vertex="1" parent="1">
          <mxGeometry x="470" y="300" width="100" height="60" as="geometry" />
        </mxCell>
      </root>
    </mxGraphModel>
  </diagram>
</mxfile>
